<?xml version="1.0" encoding="UTF-8" standalone="no"?>
<!-- Created with Inkscape (http://www.inkscape.org/) -->

<svg
   xmlns:dc="http://purl.org/dc/elements/1.1/"
   xmlns:cc="http://creativecommons.org/ns#"
   xmlns:rdf="http://www.w3.org/1999/02/22-rdf-syntax-ns#"
   xmlns:svg="http://www.w3.org/2000/svg"
   xmlns="http://www.w3.org/2000/svg"
   xmlns:sodipodi="http://sodipodi.sourceforge.net/DTD/sodipodi-0.dtd"
   xmlns:inkscape="http://www.inkscape.org/namespaces/inkscape"
   width="150"
   height="150"
   id="svg2991"
   version="1.1"
   inkscape:version="0.48.4 r9939"
   inkscape:export-filename="C:\Users\Krystian\Desktop\tile.png"
   inkscape:export-xdpi="90"
   inkscape:export-ydpi="90"
   sodipodi:docname="Nowy dokument 1">
  <defs
     id="defs2993" />
  <sodipodi:namedview
     id="base"
     pagecolor="#ffffff"
     bordercolor="#666666"
     borderopacity="1.0"
     inkscape:pageopacity="0"
     inkscape:pageshadow="2"
     inkscape:zoom="1.979899"
     inkscape:cx="72.874987"
     inkscape:cy="112.87698"
     inkscape:document-units="px"
     inkscape:current-layer="layer1"
     showgrid="false"
     inkscape:window-width="1304"
     inkscape:window-height="745"
     inkscape:window-x="54"
     inkscape:window-y="-8"
     inkscape:window-maximized="1" />
  <metadata
     id="metadata2996">
    <rdf:RDF>
      <cc:Work
         rdf:about="">
        <dc:format>image/svg+xml</dc:format>
        <dc:type
           rdf:resource="http://purl.org/dc/dcmitype/StillImage" />
        <dc:title></dc:title>
      </cc:Work>
    </rdf:RDF>
  </metadata>
  <g
     inkscape:label="Layer 1"
     inkscape:groupmode="layer"
     id="layer1"
     transform="translate(0,-902.36218)">
    <path
       style="fill:#ffffff;fill-opacity:1;stroke:none"
       d="m 75,944.86218 c -17.949255,0 -32.5,14.5507 -32.5,32.5 0,17.9493 14.550745,32.50002 32.5,32.50002 17.949255,0 32.5,-14.55072 32.5,-32.50002 0,-17.9493 -14.550745,-32.5 -32.5,-32.5 z m 0,8.75 c 13.116763,0 23.75,10.6332 23.75,23.75 0,13.1168 -10.633237,23.75002 -23.75,23.75002 -13.116763,0 -23.75,-10.63322 -23.75,-23.75002 0,-13.1168 10.633237,-23.75 23.75,-23.75 z"
       id="path3000-9"
       inkscape:connector-curvature="0" />
    <path
       style="fill:#ffffff;fill-opacity:0.69787234;stroke:none"
       d="m 75,939.86218 c -20.710678,0 -37.5,16.7893 -37.5,37.5 0,20.7107 16.789322,37.50002 37.5,37.50002 20.710678,0 37.5,-16.78932 37.5,-37.50002 0,-20.7107 -16.789322,-37.5 -37.5,-37.5 z m 0,7.5 c 16.568543,0 30,13.4315 30,30 0,16.5686 -13.431457,30.00002 -30,30.00002 -16.568543,0 -30,-13.43142 -30,-30.00002 0,-16.5685 13.431457,-30 30,-30 z"
       id="path2998-7"
       inkscape:connector-curvature="0" />
    <rect
       style="fill:#ffffff;fill-opacity:1"
       id="rect3811"
       width="3.5355339"
       height="16.162439"
       x="73.232231"
       y="956.90277" />
    <rect
       style="fill:#ffffff;fill-opacity:1"
       id="rect3811-7"
       width="3.5355339"
       height="16.162439"
       x="977.3584"
       y="-95.964493"
       transform="matrix(0,1,-1,0,0,0)" />
  </g>
</svg>
